<svg xmlns="http://www.w3.org/2000/svg" fill="none" viewBox="0 0 163 163"><path fill="#fff" d="m1.92 136.7 7.7-.04 6.15 18.99 6.1-18.99h7.41l-9.83 26.06H11.8zm54.18 3.35q3.26 3.63 3.26 10.12 0 1.16-.05 1.8h-18.7a6.8 6.8 0 0 0 2.43 3.84 7 7 0 0 0 4.3 1.38 9.4 9.4 0 0 0 6.58-2.76l3.94 3.97a13 13 0 0 1-4.82 3.41q-2.84 1.2-6.32 1.19-4.11 0-7.2-1.65a11.6 11.6 0 0 1-4.74-4.64q-1.67-3-1.67-6.93 0-3.97 1.7-7a12 12 0 0 1 4.74-4.7 14 14 0 0 1 6.98-1.67q6.3 0 9.56 3.64m-3.76 7.5a6 6 0 0 0-1.64-4.11 5.6 5.6 0 0 0-4.12-1.55q-2.42 0-4.05 1.52a7 7 0 0 0-2.05 4.14zm26.55-9.87a10.3 10.3 0 0 1 5.08-1.3v7.02q-.38-.06-1.16-.05-3.44 0-5.45 1.86a6.4 6.4 0 0 0-2 4.96v12.55h-7.47v-26.06h7.46v4.7a9.5 9.5 0 0 1 3.54-3.68m11.52-.98h22.23v4.7l-13.41 15.45h13.85v5.91l-23.16-.05v-4.7l13.42-15.44-12.94-.05zm52 3.35q3.26 3.63 3.26 10.12 0 1.16-.05 1.8h-18.7a6.8 6.8 0 0 0 2.43 3.84 7 7 0 0 0 4.31 1.38 9.4 9.4 0 0 0 6.58-2.76l3.93 3.97a13 13 0 0 1-4.82 3.41q-2.83 1.2-6.32 1.19-4.1 0-7.19-1.65a11.6 11.6 0 0 1-4.74-4.64q-1.68-3-1.67-6.93 0-3.97 1.69-7a12 12 0 0 1 4.75-4.7 14 14 0 0 1 6.97-1.67q6.3 0 9.56 3.64m-3.76 7.5a6 6 0 0 0-1.64-4.11 5.6 5.6 0 0 0-4.12-1.55q-2.42 0-4.05 1.52a7 7 0 0 0-2.05 4.14zm15.8-20.77h7.45v35.93h-7.45z"/><path fill="#7D72FF" d="M61.54 75.09 0 110.78 61.54.91z"/><path fill="#0AE1FF" d="m61.54 75.09 61.53 35.69L61.54.91z"/><path fill="#0C0C0C" d="m123.07 110.78-61.53-35.7L0 110.79z"/><path fill="#CBFA05" d="m132.04 68-58.9-.14L163 14.95z"/><path fill="#6AB026" d="m132.04 68 29.12 51.22L163 14.95z"/><path fill="#0C0C0C" d="m161.16 119.22-29.12-51.21-58.9-.14z"/></svg>